<svg xmlns="http://www.w3.org/2000/svg" xmlns:xlink="http://www.w3.org/1999/xlink" xmlns:fi="http://pattern.flaticon.com/" x="0" y="0" width="2160" height="1080" viewBox="0 0 3582.9383886255923 1791.4691943127962"><rect x="0px" y="0px" width="100%" height="100%" opacity="1" fill="#ffffff"/><defs><g transform="matrix(0.06858091545284101 0.0828686090701731 -0.0828686090701731 0.06858091545284101 117.94630288198854 37.345765006180685)" id="L1_0"><path d="m251.734375 145.121094c25.917969 0 46.933594-21.015625 46.933594-46.933594 0-25.921875-21.015625-46.933594-46.933594-46.933594-25.921875 0-46.933594 21.011719-46.933594 46.933594.027344 25.90625 21.023438 46.902344 46.933594 46.933594zm0-76.800782c16.492187 0 29.863281 13.371094 29.863281 29.867188 0 16.492188-13.371094 29.867188-29.863281 29.867188-16.496094 0-29.867187-13.375-29.867187-29.867188 0-16.496094 13.371093-29.867188 29.867187-29.867188zm0 0"/><path d="m264.53125 102.453125c0 4.710937-3.820312 8.53125-8.53125 8.53125-4.714844 0-8.535156-3.820313-8.535156-8.53125 0-4.714844 3.820312-8.535156 8.535156-8.535156 4.710938 0 8.53125 3.820312 8.53125 8.535156zm0 0"/><path d="m362.667969 145.121094c25.917969 0 46.929687-21.015625 46.929687-46.933594 0-25.921875-21.011718-46.933594-46.929687-46.933594-25.921875 0-46.933594 21.011719-46.933594 46.933594.027344 25.90625 21.023437 46.902344 46.933594 46.933594zm0-76.800782c16.492187 0 29.863281 13.371094 29.863281 29.867188 0 16.492188-13.371094 29.867188-29.863281 29.867188-16.496094 0-29.867188-13.375-29.867188-29.867188 0-16.496094 13.371094-29.867188 29.867188-29.867188zm0 0"/><path d="m366.933594 102.453125c0 4.710937-3.820313 8.53125-8.535156 8.53125-4.710938 0-8.53125-3.820313-8.53125-8.53125 0-4.714844 3.820312-8.535156 8.53125-8.535156 4.714843 0 8.535156 3.820312 8.535156 8.535156zm0 0"/><path d="m290.132812 170.71875h-25.601562c-4.710938 0-8.53125 3.820312-8.53125 8.535156 0 4.710938 3.820312 8.53125 8.53125 8.53125h25.601562c4.710938 0 8.535157-3.820312 8.535157-8.53125 0-4.714844-3.824219-8.535156-8.535157-8.535156zm0 0"/><path d="m358.398438 315.785156c0 4.714844-3.820313 8.535156-8.53125 8.535156-4.714844 0-8.535157-3.820312-8.535157-8.535156 0-4.710937 3.820313-8.53125 8.535157-8.53125 4.710937 0 8.53125 3.820313 8.53125 8.53125zm0 0"/><path d="m5.066406 370.261719c.957032 4.617187 5.472656 7.585937 10.089844 6.632812 4.613281-.957031 7.582031-5.472656 6.628906-10.085937l-3.472656-16.796875 19.875-8.453125c4.570312 6.195312 11.191406 10.566406 18.6875 12.335937l.136719 21.546875-16.792969 3.492188c-4.277344.890625-7.191406 4.867187-6.753906 9.210937.441406 4.347657 4.089844 7.660157 8.457031 7.675781.574219 0 1.148437-.058593 1.707031-.179687l23.640625-4.890625c3.988281-.8125 6.847657-4.332031 6.824219-8.402344l-.179688-28.632812c17.585938-4.550782 28.441407-22.171875 24.59375-39.925782 2.761719-1.515624 5.222657-3.523437 7.261719-5.921874l13.695313-16.445313v126.765625c.019531 13.144531 7.613281 25.105469 19.5 30.71875-1.609375 5.253906-2.429688 10.71875-2.433594 16.214844v2.386718c-7.910156 7.054688-10.632812 18.265626-6.84375 28.164063 3.792969 9.898437 13.3125 16.417969 23.910156 16.382813h76.800782c10.601562.035156 20.121093-6.484376 23.910156-16.382813 3.792968-9.898437 1.070312-21.109375-6.84375-28.164063v-2.386718c-.011719-4.3125-.535156-8.609375-1.550782-12.800782h45.773438c-1.019531 4.191407-1.539062 8.488282-1.554688 12.800782v2.386718c-7.910156 7.054688-10.636718 18.265626-6.84375 28.164063 3.792969 9.898437 13.3125 16.417969 23.910157 16.382813h76.800781c10.597656.035156 20.117188-6.484376 23.910156-16.382813 3.792969-9.898437 1.066406-21.109375-6.84375-28.164063v-2.386718c-.007812-12.121094-4.003906-23.902344-11.375-33.519532 1.851563-4.230468 2.816406-8.796874 2.839844-13.414062v-66.511719l9.566406 6.238281c.113282.359376.136719.726563.257813 1.078126 5.679687 17.257812 24.050781 26.875 41.472656 21.714843l14.410156 24.679688c1.523438 2.632812 4.332031 4.261719 7.375 4.265625.941407-.003906 1.878907-.15625 2.773438-.460938l22.824219-7.816406c2.914062-.964844 5.085937-3.417969 5.6875-6.429688.601562-3.011718-.460938-6.113281-2.78125-8.121093-2.320313-2.011719-5.539063-2.617188-8.433594-1.59375l-16.214844 5.554687-10.886719-18.679687c5.574219-5.304688 9.0625-12.429688 9.835938-20.085938l21.421875-2.832031 5.554687 16.210938c.9375 2.945312 3.394531 5.152343 6.425781 5.769531 3.027344.617187 6.152344-.453125 8.171876-2.792969 2.015624-2.34375 2.605468-5.59375 1.546874-8.496094l-7.816406-22.835937c-1.316406-3.84375-5.164062-6.222657-9.191406-5.691407l-28.390625 3.753907c-3.085937-7.765625-8.941406-14.113281-16.433594-17.816407-3.265625-1.546874-6.753906-2.566406-10.335937-3.023437l-46.839844-48.1875v-34.269531c31.066406-13.582032 51.160156-44.25 51.203125-78.15625v-42.667969h18.636719c4.15625 11.757813 16.175781 18.808594 28.464844 16.699219 12.289062-2.109375 21.269531-12.761719 21.269531-25.230469s-8.980469-23.125-21.269531-25.230469c-12.289063-2.109375-24.308594 4.941406-28.464844 16.695313h-18.636719v-46.8125c-.035156-25.972657-21.082031-47.0195315-47.054687-47.0507815h-178.960938c-25.972656.03125-47.019531 21.0781245-47.050781 47.0507815v46.8125h-18.636719c-4.15625-11.753907-16.179688-18.804688-28.464844-16.695313-12.289062 2.105469-21.273437 12.761719-21.273437 25.230469s8.984375 23.121094 21.273437 25.230469c12.285156 2.109375 24.308594-4.941406 28.464844-16.699219h18.636719v42.667969.75c-29.410157 4.480468-51.152344 29.746094-51.203125 59.496094v17.996093c-15.234375 4.066407-28.703125 13.046875-38.3125 25.550781l-14.59375 17.6875c-2.84375 3.441407-4.722656 7.582032-5.433594 11.988282-.941406.113281-1.886719.113281-2.824219.300781-17.730469 3.613281-29.496093 20.519531-26.71875 38.398437l-26.394531 11.222657c-3.738281 1.59375-5.835938 5.601562-5.007812 9.582031zm481.332032-276.34375c4.714843 0 8.535156 3.820312 8.535156 8.535156 0 4.710937-3.820313 8.53125-8.535156 8.53125-4.710938 0-8.53125-3.820313-8.53125-8.53125 0-4.714844 3.820312-8.535156 8.53125-8.535156zm-358.398438 17.066406c-4.714844 0-8.535156-3.820313-8.535156-8.53125 0-4.714844 3.820312-8.535156 8.535156-8.535156 4.710938 0 8.53125 3.820312 8.53125 8.535156 0 4.710937-3.820312 8.53125-8.53125 8.53125zm97.859375 336.105469c0 .109375.144531.195312.195313.304687 2.195312 4.191407 3.589843 8.757813 4.113281 13.457031h-76.339844c.523437-4.625 1.882813-9.117187 4.019531-13.25l.078125-.179687c6.582031-12.636719 19.621094-20.585937 33.867188-20.65625 14.246093-.070313 27.359375 7.753906 34.066406 20.324219zm4.539063 47.894531h-76.800782c-4.710937 0-8.53125-3.820313-8.53125-8.53125 0-4.714844 3.820313-8.535156 8.53125-8.535156h76.800782c4.714843 0 8.535156 3.820312 8.535156 8.535156 0 4.710937-3.820313 8.53125-8.535156 8.53125zm145.066406-221.863281v76.796875h-119.464844c-4.714844 0-8.535156-3.820313-8.535156-8.53125v-59.734375c0-4.710938 3.820312-8.53125 8.535156-8.53125zm8.304687 187.730468h-76.339843c.523437-4.695312 1.917968-9.25 4.105468-13.4375.050782-.121093.152344-.207031.203125-.324218 7.921875-14.832032 24.566407-22.789063 41.082031-19.632813 16.515626 3.15625 29.054688 16.6875 30.949219 33.394531zm.230469 34.132813h-76.800781c-4.710938 0-8.53125-3.820313-8.53125-8.53125 0-4.714844 3.820312-8.535156 8.53125-8.535156h76.800781c4.710938 0 8.53125 3.820312 8.53125 8.535156 0 4.710937-3.820312 8.53125-8.53125 8.53125zm66.796875-152.566406c2.632813 7.703125-.542969 16.195312-7.585937 20.28125-7.039063 4.085937-15.988282 2.628906-21.371094-3.480469-5.378906-6.109375-5.695313-15.171875-.753906-21.640625 4.941406-6.46875 13.765624-8.550781 21.078124-4.964844 4.074219 1.980469 7.183594 5.511719 8.632813 9.804688zm-31.871094-24.644531c-6.476562 3.308593-11.710937 8.621093-14.914062 15.148437-.710938 1.523437-1.300781 3.101563-1.769531 4.71875l-9.710938-6.332031v-40.695313zm-231.191406-270.667969c.015625-16.554688 13.429687-29.96875 29.984375-29.984375h178.960938c16.554687.015625 29.96875 13.429687 29.988281 29.984375v106.546875c-.042969 37.683594-30.582031 68.226562-68.269531 68.265625h-102.398438c-37.6875-.039063-68.226562-30.582031-68.265625-68.265625zm-15.171875 124.339843c8.4375 39.351563 43.191406 67.484376 83.4375 67.539063h102.398438c5.734374.007813 11.449218-.5625 17.066406-1.703125v18.773438h-119.464844c-14.140625 0-25.601562 11.460937-25.601562 25.597656v59.734375c0 14.136719 11.460937 25.597656 25.601562 25.597656h119.464844v51.203125.246094c-12.363282-7.960938-27.394532-10.664063-41.761719-7.507813-14.363281 3.15625-26.875 11.914063-34.765625 24.328125h-60.277344c-9.964844-15.652344-27.109375-25.273437-45.660156-25.617187-18.550781-.339844-36.042969 8.636719-46.578125 23.910156-6.003906-2.757813-9.863281-8.75-9.890625-15.359375v-136.371094c4.40625.886719 8.726562 2.15625 12.914062 3.796875 10.359376 4 22.117188.796875 29.011719-7.910156l.90625-1.09375c5.054688-6.378906 6.773438-14.785156 4.632813-22.640625-2.023438-7.722656-7.609375-14.015625-15.035156-16.945312-10.351563-4.066407-21.316407-6.347657-32.429688-6.757813v-16.367187c.050781-21.042969 15.273438-38.984376 36.03125-42.453126zm-78.261719 96.871094c8.304688-11.324218 20.808594-18.839844 34.707031-20.855468 1.601563-.183594 3.214844-.277344 4.828126-.28125 9.871093.144531 19.628906 2.078124 28.808593 5.707031 2.402344.957031 4.203125 3.007812 4.839844 5.511719.726563 2.582031.199219 5.359374-1.425781 7.492187l-.855469 1.066406c-2.292969 2.898438-6.195313 3.984375-9.65625 2.699219-7.0625-2.90625-14.527344-4.703125-22.136719-5.324219-2.75-.035156-5.480468.429688-8.066406 1.371094-.152344.050781-.304688.144531-.449219.195313l-.359375.164062c-6.738281 2.804688-12.621094 7.328125-17.066406 13.117188l-14.753906 17.730468c-.566406.613282-1.214844 1.144532-1.929688 1.578125-1.984375-2.355469-4.28125-4.433593-6.824218-6.167969-1.859376-1.214843-3.828126-2.246093-5.882813-3.089843.292969-1.15625.832031-2.238281 1.578125-3.164063zm-43.382812 43.160156c3.191406-4.9375 8.710937-7.867187 14.589843-7.742187 5.875.125 11.265626 3.289063 14.246094 8.355469v.0625c3.339844 5.59375 3.203125 12.601562-.351562 18.0625-5.183594 7.875-15.769532 10.058594-23.644532 4.875s-10.058593-15.773438-4.875-23.648438zm0 0"/></g><g transform="matrix(0.09392838405943736 -0.04420159359148754 0.04420159359148754 0.09392838405943736 244.63672689108708 96.26614306575557)" id="L1_2"><path d="m457 349.128906 29.789062 17.285156v85.5l-73.621093 42.714844-73.617188-42.714844v-85.5l73.617188-42.71875 30.835937 17.894532 7.542969-12.996094-38.378906-22.269531-81.128907 47.078125-73.621093-42.71875v-94.152344l-34.929688-20.269531-7.539062 12.996093 27.445312 15.925782v85.5l-73.621093 42.71875-73.617188-42.71875v-85.5l73.617188-42.71875 33.179687 19.253906 7.539063-12.996094-33.207032-19.269531v-94.148437l-88.640625-51.4375-88.644531 51.4375v43.089843h15.023438v-34.441406l73.621093-42.714844 73.617188 42.714844v85.503906l-73.617188 42.714844-73.621093-42.714844v-36.039062h-15.023438v44.6875l81.132812 47.078125v85.5l-81.132812 47.078125v102.804687l33.808594 19.613282 7.539062-12.992188-26.324218-15.273438v-85.5l73.621093-42.71875 73.617188 42.71875v85.5l-73.617188 42.714844-34.300781-19.902344-7.539062 12.996094 41.839843 24.277344 81.128907-47.078125 32.875 19.078125 7.539062-12.996094-32.902344-19.09375v-85.496094l73.621094-42.71875 73.621094 42.71875v85.496094l-73.621094 42.71875-27.722656-16.085937-7.539063 12.996093 35.261719 20.460938 81.132812-47.078125 81.128907 47.078125 88.644531-51.433594v-102.804687l-37.269531-21.628907zm0 0"/><path d="m244.898438 131.210938c17.1875 0 32.019531-10.246094 38.734374-24.949219l34.714844 8.300781c-.539062 3.304688-.832031 6.6875-.832031 10.140625 0 21.644531 11.042969 40.753906 27.789063 52.003906l-11.929688 16.101563c-4.488281-1.613282-9.320312-2.5-14.359375-2.5-23.472656 0-42.566406 19.097656-42.566406 42.570312s19.09375 42.566406 42.566406 42.566406 42.570313-19.09375 42.570313-42.566406c0-13.019531-5.882813-24.6875-15.117188-32.5l12.429688-16.785156c6.628906 2.398438 13.773437 3.710938 21.21875 3.710938 34.515624 0 62.601562-28.082032 62.601562-62.601563 0-12.15625-3.496094-23.503906-9.515625-33.117187l13.894531-12.6875c6.460938 3.957031 14.050782 6.238281 22.164063 6.238281 23.472656 0 42.566406-19.09375 42.566406-42.566407 0-23.472656-19.09375-42.570312-42.566406-42.570312-23.476563 0-42.570313 19.097656-42.570313 42.570312 0 9.914063 3.417969 19.042969 9.125 26.285157l-12.066406 11.015625c-11.285156-10.984375-26.679688-17.769532-43.632812-17.769532-25.796876 0-47.996094 15.683594-57.566407 38.019532l-35.207031-8.417969c.074219-1.011719.121094-2.03125.121094-3.058594 0-23.472656-19.09375-42.570312-42.566406-42.570312-23.472657 0-42.570313 19.097656-42.570313 42.570312 0 23.472657 19.097656 42.566407 42.570313 42.566407zm224.363281-116.1875c15.1875 0 27.542969 12.359374 27.542969 27.546874s-12.355469 27.542969-27.542969 27.542969c-15.191407 0-27.546875-12.355469-27.546875-27.542969s12.355468-27.546874 27.546875-27.546874zm-122.699219 217.855468c0 15.1875-12.355469 27.542969-27.546875 27.542969-15.1875 0-27.542969-12.355469-27.542969-27.542969s12.355469-27.546875 27.542969-27.546875c15.191406 0 27.546875 12.359375 27.546875 27.546875zm33.554688-155.753906c26.230468 0 47.574218 21.34375 47.574218 47.578125 0 26.230469-21.34375 47.574219-47.574218 47.574219-26.234376 0-47.578126-21.34375-47.578126-47.574219 0-26.234375 21.34375-47.578125 47.578126-47.578125zm-135.21875-16.027344c15.1875 0 27.542968 12.359375 27.542968 27.546875s-12.355468 27.542969-27.542968 27.542969c-15.191407 0-27.546876-12.355469-27.546876-27.542969s12.355469-27.546875 27.546876-27.546875zm0 0"/><path d="m305.761719 445.429688-7.542969-12.996094-47.3125 27.457031-21.320312-12.375-7.542969 12.996094 28.863281 16.746093zm0 0"/><path d="m196.042969 445.445312 7.539062-12.996093 12.996094 7.542969-7.542969 12.992187zm0 0"/><path d="m471.765625 438.933594v-63.867188l-28.835937-16.730468-7.539063 12.996093 21.347656 12.386719v55.214844zm0 0"/><path d="m409.398438 356.277344 7.539062-12.996094 12.996094 7.542969-7.542969 12.992187zm0 0"/><path d="m33.773438 445.441406 7.542968-12.992187 25.089844 14.558593-7.539062 12.996094zm0 0"/><path d="m71.859375 467.546875 7.542969-12.992187 12.996094 7.539062-7.542969 12.996094zm0 0"/><path d="m30.046875 141.453125h15.027344v15.023437h-15.027344zm0 0"/><path d="m30.046875 96.933594h15.027344v29.492187h-15.027344zm0 0"/><path d="m166 215.035156 7.542969-12.996094 12.996093 7.539063-7.542968 12.996094zm0 0"/><path d="m228.371094 297.703125v-63.867187l-28.835938-16.730469-7.539062 12.996093 21.347656 12.386719v55.214844zm0 0"/><path d="m397.644531 124.703125h15.023438c0-17.953125-14.601563-32.554687-32.550781-32.554687v15.023437c9.664062 0 17.527343 7.867187 17.527343 17.53125zm0 0"/></g><g transform="matrix(0.07643440203724955 0.05809014298514942 -0.05809014298514942 0.07643440203724955 115.24387680272697 237.5630200208738)" id="L1_3"><path d="M506.76,242.828l-118.4-125.44c-7.277-7.718-19.424-8.07-27.142-0.787c-7.706,7.277-8.064,19.43-0.781,27.142    l105.965,112.256L360.437,368.268c-7.283,7.712-6.925,19.859,0.781,27.142c3.712,3.501,8.454,5.235,13.178,5.235    c5.101,0,10.195-2.022,13.965-6.01l118.4-125.446C513.742,261.785,513.742,250.226,506.76,242.828z"/><path d="M151.566,368.262L45.608,255.999l105.958-112.262c7.277-7.712,6.925-19.866-0.787-27.142    c-7.706-7.277-19.866-6.925-27.142,0.787l-118.4,125.44c-6.982,7.398-6.982,18.963,0,26.362L123.643,394.63    c3.776,4,8.864,6.016,13.965,6.016c4.723,0,9.466-1.741,13.171-5.242C158.498,388.127,158.843,375.974,151.566,368.262z"/><path d="M287.061,52.697c-10.477-1.587-20.282,5.606-21.882,16.083l-56.32,368.64c-1.6,10.483,5.6,20.282,16.083,21.882    c0.986,0.147,1.958,0.218,2.925,0.218c9.325,0,17.504-6.803,18.957-16.301l56.32-368.64    C304.744,64.095,297.544,54.297,287.061,52.697z"/></g><g transform="matrix(0.10025830878598738 0.06782179440033678 -0.06782179440033678 0.10025830878598738 316.0760348837902 218.79968582960296)" id="L1_4"><path d="m506.68 398.262-42.607-42.607c-2.93-2.929-7.678-2.929-10.607 0s-2.929 7.678 0 10.606l29.807 29.806h-104.784v-211.356c.859 1.026 1.718 2.055 2.579 3.089 17.758 21.308 37.884 45.458 77.032 45.458 4.143 0 7.5-3.358 7.5-7.5s-3.357-7.5-7.5-7.5c-32.123 0-48.34-19.459-65.509-40.062-17.758-21.308-37.884-45.458-77.031-45.458-39.138 0-59.263 24.144-77.02 45.445-7.802 9.359-15.171 18.2-23.929 25.313-3.215 2.612-3.705 7.335-1.093 10.55 2.611 3.216 7.336 3.704 10.55 1.093 9.89-8.033 18.077-17.854 25.994-27.353 17.168-20.596 33.384-40.049 65.498-40.049 21.356 0 35.679 8.606 47.929 20.426v227.904h-31.049c-4.143 0-7.5 3.358-7.5 7.5s3.357 7.5 7.5 7.5h150.827l-29.802 29.801c-2.929 2.929-2.929 7.678 0 10.606 1.465 1.465 3.384 2.197 5.304 2.197 1.919 0 3.839-.732 5.304-2.197l42.607-42.607c2.929-2.927 2.929-7.676 0-10.605z"/><path d="m297.44 396.068h-131.031v-163.056c2.144.157 4.342.246 6.611.246 5.494 0 10.824-.477 15.843-1.418 4.071-.764 6.752-4.683 5.989-8.754-.764-4.071-4.68-6.75-8.754-5.989-4.109.771-8.508 1.162-13.077 1.162-32.112 0-48.326-19.455-65.492-40.052-13.409-16.089-27.245-32.676-48.929-40.662v-94.991l29.804 29.804c1.464 1.464 3.384 2.197 5.303 2.197s3.839-.732 5.303-2.197c2.929-2.929 2.929-7.678 0-10.606l-42.606-42.606c-.175-.175-.36-.341-.552-.499-.083-.068-.172-.128-.257-.192-.11-.083-.218-.168-.332-.244-.104-.069-.211-.129-.317-.193-.104-.062-.206-.127-.313-.185-.108-.058-.219-.107-.329-.159-.112-.053-.221-.108-.336-.156-.107-.044-.216-.08-.324-.119-.122-.044-.243-.091-.369-.129-.107-.032-.216-.056-.325-.083-.129-.033-.256-.068-.387-.095-.122-.024-.245-.038-.367-.056-.12-.018-.237-.04-.359-.052-.216-.021-.432-.03-.648-.033-.03 0-.059-.005-.089-.005s-.059.004-.089.005c-.216.003-.433.012-.648.033-.122.012-.24.034-.359.052-.122.018-.245.032-.367.056-.131.026-.259.062-.388.095-.108.027-.217.051-.324.083-.125.038-.246.085-.369.129-.108.039-.218.075-.324.119-.114.047-.224.103-.336.156-.11.052-.221.101-.329.159-.107.058-.209.123-.314.185-.106.063-.213.123-.316.192-.115.077-.223.162-.334.245-.085.064-.173.123-.256.191-.192.157-.376.323-.552.499l-42.606 42.607c-2.929 2.929-2.929 7.678 0 10.606 1.464 1.464 3.384 2.197 5.303 2.197s3.839-.732 5.303-2.197l29.805-29.804v353.514h-36.1c-4.142 0-7.5 3.358-7.5 7.5s3.358 7.5 7.5 7.5h36.1v45.891c0 4.142 3.358 7.5 7.5 7.5s7.5-3.358 7.5-7.5v-45.891h238.84c4.143 0 7.5-3.358 7.5-7.5s-3.357-7.5-7.5-7.5zm-238.84-242.222c15.151 7.302 26.023 20.305 37.405 33.963 14.15 16.979 29.817 35.75 55.404 42.677v165.583h-92.809z"/><path d="m265.865 304.813c-4.566 0-7.171-2.483-7.86-3.244-2.782-3.069-7.524-3.303-10.594-.521-3.069 2.781-3.303 7.524-.521 10.594 4.706 5.193 11.623 8.172 18.976 8.172 9.419 0 17.346-6.11 18.849-14.527 1.097-6.145-1.626-14.797-12.909-18.958-4.072-1.503-7.905-3.125-9.691-3.897.063-.232.366-.595 1.172-.838 3.61-1.089 8.364 1.475 9.754 2.464 3.331 2.424 8.001 1.709 10.448-1.612 2.459-3.333 1.75-8.029-1.583-10.488-1.146-.846-11.529-8.165-22.945-4.726-6.328 1.906-10.811 6.935-11.7 13.125-.843 5.873 1.706 11.523 6.651 14.748.332.216.679.405 1.041.566.226.101 5.607 2.497 11.662 4.73 2.628.969 3.37 2.047 3.334 2.25-.116.635-1.452 2.162-4.084 2.162z"/><path d="m166.409 437.594c-3.199 0-5.923 2.007-7.001 4.827-3.291-1.611-6.987-2.519-10.892-2.519-13.708 0-24.859 11.152-24.859 24.859 0 13.708 11.152 24.859 24.859 24.859 3.905 0 7.601-.908 10.892-2.519 1.078 2.82 3.802 4.827 7.001 4.827 4.142 0 7.5-3.358 7.5-7.5v-39.335c0-4.141-3.358-7.499-7.5-7.499zm-17.892 37.026c-5.437 0-9.859-4.423-9.859-9.859s4.423-9.859 9.859-9.859 9.859 4.423 9.859 9.859c-.001 5.437-4.423 9.859-9.859 9.859z"/><path d="m370.989 438.14c-4.334 0-8.36 1.037-11.894 2.865v-14.416c0-4.142-3.357-7.5-7.5-7.5s-7.5 3.358-7.5 7.5v57.839c0 4.142 3.357 7.5 7.5 7.5 2.672 0 5.011-1.401 6.34-3.505 3.801 2.226 8.238 3.505 13.054 3.505 14.83 0 26.895-12.064 26.895-26.894s-12.065-26.894-26.895-26.894zm0 38.788c-6.559 0-11.894-5.335-11.894-11.894s5.335-11.895 11.894-11.895 11.895 5.336 11.895 11.895-5.337 11.894-11.895 11.894z"/><path d="m188.344 77.143v30.467c0 4.142 3.358 7.5 7.5 7.5s7.5-3.358 7.5-7.5v-30.4h1.15c4.142 0 7.5-3.358 7.5-7.5s-3.358-7.5-7.5-7.5h-1.15v-5.051c.708-.092 1.682-.096 2.415.014 4.06.665 7.906-2.069 8.604-6.132.701-4.083-2.04-7.96-6.122-8.661-1.548-.266-9.556-1.353-15.158 3.368-3.056 2.576-4.739 6.38-4.739 10.712v5.817c-3.693.468-6.55 3.614-6.55 7.433s2.858 6.965 6.55 7.433z"/><path d="m270.647 104.002c1.353 1.02 2.938 1.512 4.51 1.512 2.273 0 4.521-1.03 5.994-2.985l9.38-12.44 9.976 13.146c1.476 1.944 3.715 2.966 5.98 2.966 1.579 0 3.173-.498 4.528-1.526 3.3-2.504 3.944-7.208 1.44-10.508l-12.54-16.524 10.376-13.761c2.494-3.308 1.834-8.01-1.473-10.504-3.309-2.496-8.011-1.834-10.504 1.473l-7.823 10.375-7.888-10.394c-2.504-3.299-7.21-3.945-10.509-1.44-3.3 2.504-3.944 7.208-1.44 10.508l10.452 13.772-11.933 15.826c-2.493 3.308-1.833 8.011 1.474 10.504z"/><path d="m240.158 109.698c.64 0 1.29-.083 1.937-.255 4.002-1.067 6.382-5.177 5.315-9.179-6.565-24.625-.396-41.312-.268-41.648 1.51-3.837-.361-8.178-4.194-9.711-3.846-1.538-8.21.333-9.749 4.179-.34.851-8.244 21.186-.283 51.044.894 3.356 3.927 5.57 7.242 5.57z"/><path d="m334.235 100.264c-1.066 4.002 1.313 8.112 5.314 9.179.647.172 1.298.255 1.938.255 3.314 0 6.348-2.215 7.242-5.57 7.961-29.858.057-50.193-.283-51.044-1.538-3.846-5.903-5.717-9.749-4.179s-5.717 5.903-4.179 9.749c.065.163 6.303 16.91-.283 41.61z"/></g><g transform="matrix(0.0512678058502881 0.0512678058502881 -0.0512678058502881 0.0512678058502881 216.9863373088031 302.7365193191199)" id="L1_5"><path d="m318.26 376.722c14.975 0 29.95-5.7 41.351-17.101 22.8-22.8 22.8-59.899 0-82.699-22.801-22.801-59.9-22.801-82.701 0-22.8 22.8-22.8 59.899 0 82.699 11.4 11.4 26.375 17.101 41.35 17.101zm-30.743-89.194c8.477-8.477 19.608-12.714 30.743-12.714 11.133 0 22.269 4.239 30.743 12.714 16.952 16.952 16.952 44.535 0 61.486-16.951 16.953-44.535 16.952-61.486 0-16.953-16.951-16.953-44.534 0-61.486z"/><path d="m250.187 250.199c-27.903 27.905-35.971 69.405-20.552 105.726 1.618 3.813 6.024 5.59 9.834 3.973 3.813-1.619 5.592-6.021 3.973-9.834-13.017-30.664-6.205-65.7 17.353-89.258 31.687-31.687 83.247-31.686 114.932 0 31.687 31.687 31.687 83.245 0 114.932-15.223 15.222-35.46 23.675-56.985 23.802-.164.001-.325.001-.489.001-21.325 0-41.453-8.185-56.721-23.076-2.966-2.893-7.714-2.833-10.605.132-2.892 2.965-2.833 7.714.133 10.606 18.088 17.643 41.929 27.338 67.19 27.337.193 0 .387 0 .58-.002 25.498-.149 49.472-10.163 67.505-28.195 37.534-37.535 37.534-98.609 0-136.145-37.539-37.534-98.611-37.534-136.148.001z"/><path d="m497.865 284.598h-26.687c-3.963-18.084-11.014-35.122-20.963-50.66l18.854-18.855c2.714-2.713 4.208-6.32 4.208-10.157s-1.494-7.444-4.207-10.156l-27.31-27.309c-2.713-2.713-6.319-4.208-10.156-4.208s-7.443 1.494-10.157 4.207l-18.855 18.856c-15.537-9.95-32.574-17-50.659-20.964v-26.687c0-7.919-6.443-14.363-14.363-14.363h-38.621c-4.462 0-8.455 2.046-11.091 5.248h-4.901c-3.195-13.983-8.66-27.189-16.263-39.302l14.425-14.425c5.086-5.087 5.086-13.363 0-18.451l-22.072-22.072c-2.465-2.464-5.741-3.821-9.226-3.821s-6.762 1.357-9.225 3.822l-14.426 14.424c-12.11-7.602-25.317-13.067-39.302-16.263v-20.415c.001-7.194-5.851-13.047-13.046-13.047h-31.214c-7.194 0-13.047 5.853-13.047 13.047v20.416c-13.984 3.196-27.192 8.662-39.302 16.263l-14.423-14.424c-2.464-2.465-5.74-3.822-9.226-3.822s-6.763 1.357-9.227 3.822l-22.07 22.071c-5.086 5.087-5.086 13.363 0 18.451l14.425 14.425c-7.602 12.11-13.067 25.318-16.263 39.302h-20.416c-7.194 0-13.047 5.853-13.047 13.047v31.214c0 7.194 5.853 13.047 13.047 13.047h20.416c3.196 13.985 8.661 27.193 16.263 39.302l-14.425 14.425c-5.087 5.087-5.087 13.364 0 18.451l22.071 22.072c5.087 5.086 13.363 5.088 18.452 0l14.425-14.425c12.109 7.602 25.315 13.067 39.301 16.263v4.908c-3.215 2.636-5.271 6.635-5.271 11.108v38.622c0 7.92 6.443 14.363 14.363 14.363h26.687c3.964 18.085 11.015 35.124 20.963 50.66l-18.854 18.855c-2.714 2.713-4.208 6.32-4.208 10.157s1.494 7.444 4.207 10.156l27.31 27.309c2.713 2.713 6.319 4.208 10.156 4.208s7.443-1.494 10.157-4.207l18.854-18.856c15.538 9.95 32.577 17.001 50.66 20.963v26.687c0 7.92 6.443 14.363 14.363 14.363h38.621c7.92 0 14.363-6.443 14.363-14.363v-26.69c18.085-3.963 35.123-11.014 50.66-20.963l18.855 18.856c2.713 2.712 6.319 4.207 10.156 4.207s7.443-1.494 10.156-4.207l27.309-27.309c2.714-2.713 4.208-6.32 4.208-10.157s-1.494-7.444-4.207-10.156l-18.855-18.856c9.948-15.535 16.999-32.575 20.963-50.66h26.687c7.92 0 14.363-6.443 14.363-14.363v-38.622c.001-7.919-6.443-14.362-14.363-14.362zm-363.624-15.979c-13.285-2.87-25.788-8.043-37.164-15.378-5.143-3.313-12.001-2.589-16.312 1.723l-14.155 14.156-19.31-19.31 14.156-14.157c4.311-4.312 5.035-11.171 1.722-16.312-7.335-11.375-12.509-23.879-15.379-37.165-1.293-5.979-6.656-10.319-12.753-10.319h-20.034v-27.307h20.035c6.096 0 11.46-4.34 12.754-10.322 2.869-13.284 8.043-25.787 15.378-37.163 3.313-5.139 2.589-11.999-1.722-16.311l-14.156-14.156 19.31-19.31 14.155 14.156c4.311 4.312 11.168 5.036 16.313 1.722 11.376-7.335 23.879-12.509 37.162-15.378 5.98-1.292 10.321-6.656 10.321-12.754v-20.034h27.308v20.035c0 6.098 4.341 11.462 10.321 12.754 13.283 2.869 25.786 8.043 37.163 15.377 5.14 3.313 12 2.591 16.313-1.722l14.155-14.156 19.31 19.31-14.155 14.155c-4.313 4.312-5.037 11.172-1.723 16.312 7.336 11.378 12.51 23.882 15.378 37.163 1.292 5.981 6.655 10.322 12.754 10.322h3.201v20.802c-18.084 3.963-35.122 11.014-50.659 20.964l-18.856-18.856c-.224-.224-.462-.426-.698-.633 2.631-17.277-2.684-35.541-15.961-48.818-15.707-15.708-39.307-20.832-60.122-13.056-3.88 1.45-5.851 5.771-4.4 9.651 1.449 3.88 5.77 5.85 9.65 4.401 15.324-5.727 32.701-1.955 44.266 9.61 9.705 9.705 13.615 23.027 11.774 35.666-1.783.713-3.422 1.781-4.821 3.179l-27.309 27.309c-1.402 1.401-2.471 3.044-3.184 4.83-1.987.289-4.005.451-6.05.451-11.178 0-21.686-4.353-29.589-12.256-13.208-13.208-16.055-33.792-6.924-50.057 2.027-3.612.743-8.184-2.869-10.211-3.61-2.027-8.183-.743-10.211 2.869-12.407 22.102-8.543 50.067 9.396 68.006 11.082 11.082 25.64 16.623 40.196 16.623 2.87 0 5.737-.227 8.58-.66.213.243.422.489.653.719l18.855 18.856c-9.948 15.536-17 32.576-20.963 50.66h-20.779v-3.225c0-6.098-4.34-11.462-10.321-12.755zm362.988 68.326h-26.569c-6.713 0-12.617 4.78-14.041 11.367-3.596 16.646-10.079 32.315-19.27 46.57-3.65 5.66-2.854 13.214 1.892 17.96l18.773 18.774-26.409 26.409-18.773-18.775c-4.745-4.745-12.299-5.542-17.959-1.893-14.257 9.192-29.926 15.675-46.572 19.271-6.586 1.423-11.366 7.328-11.366 14.041v26.569h-37.348v-26.569c0-6.712-4.78-12.617-11.367-14.041-16.645-3.595-32.313-10.079-46.571-19.271-5.658-3.648-13.212-2.853-17.96 1.893l-18.772 18.774-26.409-26.409 18.772-18.774c4.748-4.747 5.544-12.3 1.894-17.96-9.191-14.256-15.675-29.924-19.271-46.571-1.424-6.586-7.328-11.367-14.041-11.367h-26.569v-37.348h26.569c6.713 0 12.617-4.78 14.041-11.367 3.596-16.646 10.079-32.315 19.27-46.57 3.651-5.661 2.855-13.214-1.892-17.96l-18.773-18.774 26.409-26.409 18.772 18.774c4.746 4.746 12.299 5.542 17.96 1.894 14.258-9.192 29.927-15.676 46.571-19.271 6.587-1.423 11.367-7.328 11.367-14.041v-26.57h37.348v26.569c0 6.713 4.78 12.618 11.366 14.041 16.646 3.595 32.314 10.079 46.572 19.271 5.659 3.648 13.212 2.854 17.96-1.894l18.772-18.774 26.409 26.409-18.773 18.777c-4.748 4.747-5.544 12.3-1.894 17.959 9.191 14.256 15.675 29.925 19.271 46.572 1.424 6.586 7.328 11.367 14.041 11.367h26.569v37.347z"/></g></defs><g fi:class="KUsePattern"><pattern id="pattern_L1_0" width="350" height="350" patternUnits="userSpaceOnUse"><use xlink:href="#L1_0" x="-350" y="-350"/><use xlink:href="#L1_0" x="0" y="-350"/><use xlink:href="#L1_0" x="350" y="-350"/><use xlink:href="#L1_0" x="-350" y="0"/><use xlink:href="#L1_0" x="0" y="0"/><use xlink:href="#L1_0" x="350" y="0"/><use xlink:href="#L1_0" x="-350" y="350"/><use xlink:href="#L1_0" x="0" y="350"/><use xlink:href="#L1_0" x="350" y="350"/></pattern><rect x="0" y="0" width="100%" height="100%" fill="url(#pattern_L1_0)"/></g><g fi:class="KUsePattern"><pattern id="pattern_L1_2" width="350" height="350" patternUnits="userSpaceOnUse"><use xlink:href="#L1_2" x="-350" y="-350"/><use xlink:href="#L1_2" x="0" y="-350"/><use xlink:href="#L1_2" x="350" y="-350"/><use xlink:href="#L1_2" x="-350" y="0"/><use xlink:href="#L1_2" x="0" y="0"/><use xlink:href="#L1_2" x="350" y="0"/><use xlink:href="#L1_2" x="-350" y="350"/><use xlink:href="#L1_2" x="0" y="350"/><use xlink:href="#L1_2" x="350" y="350"/></pattern><rect x="0" y="0" width="100%" height="100%" fill="url(#pattern_L1_2)"/></g><g fi:class="KUsePattern" opacity="0.76"><pattern id="pattern_L1_3" width="350" height="350" patternUnits="userSpaceOnUse"><use xlink:href="#L1_3" x="-350" y="-350"/><use xlink:href="#L1_3" x="0" y="-350"/><use xlink:href="#L1_3" x="350" y="-350"/><use xlink:href="#L1_3" x="-350" y="0"/><use xlink:href="#L1_3" x="0" y="0"/><use xlink:href="#L1_3" x="350" y="0"/><use xlink:href="#L1_3" x="-350" y="350"/><use xlink:href="#L1_3" x="0" y="350"/><use xlink:href="#L1_3" x="350" y="350"/></pattern><rect x="0" y="0" width="100%" height="100%" fill="url(#pattern_L1_3)"/></g><g fi:class="KUsePattern"><pattern id="pattern_L1_4" width="350" height="350" patternUnits="userSpaceOnUse"><use xlink:href="#L1_4" x="-350" y="-350"/><use xlink:href="#L1_4" x="0" y="-350"/><use xlink:href="#L1_4" x="350" y="-350"/><use xlink:href="#L1_4" x="-350" y="0"/><use xlink:href="#L1_4" x="0" y="0"/><use xlink:href="#L1_4" x="350" y="0"/><use xlink:href="#L1_4" x="-350" y="350"/><use xlink:href="#L1_4" x="0" y="350"/><use xlink:href="#L1_4" x="350" y="350"/></pattern><rect x="0" y="0" width="100%" height="100%" fill="url(#pattern_L1_4)"/></g><g fi:class="KUsePattern"><pattern id="pattern_L1_5" width="350" height="350" patternUnits="userSpaceOnUse"><use xlink:href="#L1_5" x="-350" y="-350"/><use xlink:href="#L1_5" x="0" y="-350"/><use xlink:href="#L1_5" x="350" y="-350"/><use xlink:href="#L1_5" x="-350" y="0"/><use xlink:href="#L1_5" x="0" y="0"/><use xlink:href="#L1_5" x="350" y="0"/><use xlink:href="#L1_5" x="-350" y="350"/><use xlink:href="#L1_5" x="0" y="350"/><use xlink:href="#L1_5" x="350" y="350"/></pattern><rect x="0" y="0" width="100%" height="100%" fill="url(#pattern_L1_5)"/></g></svg>