<svg xmlns="http://www.w3.org/2000/svg" xmlns:xlink="http://www.w3.org/1999/xlink" xmlns:fi="http://pattern.flaticon.com/" x="0" y="0" width="2160" height="1080" viewBox="0 0 2026.809651474531 1013.4048257372655"><rect x="0px" y="0px" width="100%" height="100%" opacity="1" fill="#ffffff"/><defs><g transform="matrix(0.1171812117099762 0 0 0.1171812117099762 262.9999998242283 260.0000002929528)" id="L1_6"><path d="m140.917969 162.160156c-16.492188 0-29.863281 13.371094-29.863281 29.867188s13.371093 29.867187 29.863281 29.867187c16.496093 0 29.867187-13.371093 29.867187-29.867187s-13.371094-29.867188-29.867187-29.867188zm0 42.667969c-7.066407 0-12.796875-5.730469-12.796875-12.800781 0-7.070313 5.730468-12.800782 12.796875-12.800782 7.070312 0 12.800781 5.730469 12.800781 12.800782 0 7.070312-5.730469 12.800781-12.800781 12.800781zm0 0"/><path d="m320.121094 221.894531c16.492187 0 29.867187-13.371093 29.867187-29.867187s-13.375-29.867188-29.867187-29.867188c-16.496094 0-29.867188 13.371094-29.867188 29.867188s13.371094 29.867187 29.867188 29.867187zm0-42.667969c7.066406 0 12.796875 5.730469 12.796875 12.800782 0 7.070312-5.730469 12.800781-12.796875 12.800781-7.070313 0-12.800782-5.730469-12.800782-12.800781 0-7.070313 5.730469-12.800782 12.800782-12.800782zm0 0"/><path d="m230.519531 119.492188c-.492187.054687-.976562.152343-1.449219.292968-.511718 0-1.035156-.0625-1.546874 0l-128 15.058594c-12.886719 1.519531-22.601563 12.445312-22.605469 25.421875v27.496094h-27.167969c-4.15625-11.757813-16.175781-18.808594-28.464844-16.699219-12.289062 2.109375-21.269531 12.761719-21.269531 25.230469s8.980469 23.125 21.269531 25.234375c12.289063 2.105468 24.308594-4.945313 28.464844-16.699219h27.167969v24.566406c0 14.140625 11.464843 25.601563 25.601562 25.601563.503907 0 1 0 1.503907-.050782l66.761718-3.925781v13.542969c0 14.136719 11.460938 25.597656 25.601563 25.597656h8.53125v16.152344c-12.039063.882812-24.027344 2.429688-35.898438 4.636719-2.699219.519531-4.984375 2.3125-6.136719 4.8125h-42.554687c-4.996094 0-9.539063 2.910156-11.628906 7.449219-2.085938 4.542968-1.34375 9.882812 1.910156 13.679687l21.699219 25.308594-13.292969 10.734375c-2.421875 1.898437-3.632813 4.953125-3.171875 7.992187.460938 3.042969 2.523438 5.601563 5.394531 6.695313 2.875 1.097656 6.117188.5625 8.484375-1.402344l13.289063-10.726562 10.707031 13.296874-13.292969 10.710938c-2.816406 2.269531-3.890625 6.070312-2.6875 9.480469 1.207031 3.410156 4.429688 5.6875 8.046875 5.691406 1.945313.003906 3.832032-.664063 5.339844-1.894531l13.304688-10.710938c.117187-.101562.210937-.230468.332031-.332031 4.828125 1.007813 9.675781 1.945313 14.507812 2.722656v22.238281h-42.617187c-37.683594.042969-68.222656 30.582032-68.265625 68.265626 0 9.425781 7.640625 17.066406 17.066406 17.066406h103.398437c8.601563-.007813 15.855469-6.414063 16.921876-14.949219l6.398437-51.199219c.59375-4.65625-.765625-9.34375-3.757813-12.957031-2.992187-3.613281-7.34375-5.824219-12.027343-6.109375v-20.09375c22.691406 2.410156 45.574219 2.410156 68.265625 0v20.09375c-4.683594.28125-9.042969 2.488281-12.039063 6.101562-2.996093 3.613282-4.359375 8.308594-3.765625 12.964844l6.402344 51.199219c1.066406 8.542969 8.328125 14.953125 16.9375 14.949219h103.398438c9.425781 0 17.066406-7.640625 17.066406-17.066406-.042969-37.683594-30.582032-68.222657-68.265625-68.265626h-42.667969v-22.238281c6.339844-1.015625 12.65625-2.175781 18.917969-3.558593 4.238281-.945313 7.089843-4.917969 6.632812-9.234376-1.230469-11.679687-2.457031-21.664062-3.679687-31.632812-.914063-7.476562-1.824219-15.035156-2.746094-23.21875l37.914062 12.636719c.867188.296875 1.777344.445312 2.695313.445312 1.9375 0 3.820313-.660156 5.332031-1.871093l40.339844-32.261719h5.527344c9.425781 0 17.066406-7.640625 17.066406-17.066407v-17.066406c0-4.714844-3.820312-8.535156-8.53125-8.535156-4.714844 0-8.535156 3.820312-8.535156 8.535156v17.066406h-17.066406v-17.066406c0-4.714844-3.820313-8.535156-8.53125-8.535156-4.714844 0-8.535157 3.820312-8.535157 8.535156v17.066406c.019531 5.074219 2.3125 9.875 6.246094 13.082032l-25.019531 20.019531-40.960938-13.65625c-.484375-3.621094-3.234375-6.527344-6.824218-7.210937-11.855469-2.195313-23.820313-3.734376-35.839844-4.617188v-16.152344h8.53125c14.140625 0 25.601562-11.460937 25.601562-25.597656v-13.542969l66.753906 3.925781c7.039063.414063 13.9375-2.089843 19.070313-6.925781 5.128906-4.835937 8.039063-11.574219 8.042969-18.625v-24.566406h27.167968c4.15625 11.753906 16.175782 18.804687 28.464844 16.699219 12.289063-2.109375 21.273438-12.765625 21.273438-25.234375s-8.984375-23.121094-21.273438-25.230469c-12.289062-2.109375-24.308594 4.941406-28.464844 16.699219h-27.167968v-27.496094c-.007813-12.972656-9.71875-23.894531-22.605469-25.410156l-94.71875-11.144531c.621094-.566407 1.253906-1.128907 1.796875-1.707032 8.484375-8.632812 13.203125-20.273437 13.125-32.375.003906-6.289062-1.265625-12.511718-3.726562-18.296875 2.488281-6.410156 3.753906-13.230469 3.726562-20.105469.457031-13.714843-4.789062-27.003906-14.492188-36.707031-9.703124-9.699219-22.992187-14.949219-36.707031-14.4921872-4.710937 0-8.53125 3.8203122-8.53125 8.5351562 0 4.710938 3.820313 8.53125 8.53125 8.53125 9.203125-.519531 18.191407 2.910156 24.707031 9.425781 6.519532 6.519531 9.945313 15.503907 9.425782 24.707031 0 .855469 0 1.621094-.074219 2.433594-9.753906-7.46875-21.78125-11.339844-34.058594-10.964844-35.371093 0-51.199219 15-51.199219 29.867188 0 14.863281 15.828126 29.863281 51.199219 29.863281 12.460938.355469 24.613281-3.898437 34.132813-11.945312-.128906 7.332031-3.0625 14.335937-8.191406 19.574219-7.015626 6.523437-16.375 9.929687-25.941407 9.4375zm-204.800781 85.335937c-4.710938 0-8.53125-3.820313-8.53125-8.535156 0-4.710938 3.820312-8.53125 8.53125-8.53125 4.714844 0 8.535156 3.820312 8.535156 8.53125 0 4.714843-3.820312 8.535156-8.535156 8.535156zm110.933594 238.933594h24.464844l-6.398438 51.199219h-69.265625c.027344-28.265626 22.933594-51.171876 51.199219-51.199219zm52.199218 59.730469v-8.53125zm0-8.53125h-16.929687l6.398437-51.199219h16.929688zm76.945313-51.199219h16.929687l6.398438 51.199219h-16.9375zm109.789063 51.199219h-69.265626l-6.398437-51.199219h24.464844c28.265625.027343 51.171875 22.933593 51.199219 51.199219zm59.734374-307.199219c4.710938 0 8.53125 3.820312 8.53125 8.53125 0 4.714843-3.820312 8.535156-8.53125 8.535156-4.714843 0-8.535156-3.820313-8.535156-8.535156 0-4.710938 3.820313-8.53125 8.535156-8.53125zm-179.199218-112.871094c-6.597656 7.0625-15.949219 10.886719-25.601563 10.46875-24.125 0-34.132812-8.335937-34.132812-12.796875 0-4.464844 10.007812-12.800781 34.132812-12.800781 10.742188-.734375 21.195313 3.683593 28.160157 11.894531-.785157 1.128906-1.640626 2.210938-2.558594 3.234375zm-95.480469 257.9375c-1.066406 9.777344-2.132813 18.535156-3.191406 27.203125l-.5625 4.625-27.28125-31.828125zm121.539063-6.296875c.132812.585938.324218 1.15625.574218 1.707031 1.3125 12.578125 2.558594 23.226563 3.898438 33.832031.9375 7.621094 1.867187 15.265626 2.808594 23.671876-38.929688 7.570312-78.953126 7.570312-117.882813 0 .941406-8.40625 1.878906-16.050782 2.808594-23.671876 1.304687-10.648437 2.5625-21.332031 3.917969-33.988281.242187-.511719.429687-1.046875.5625-1.59375 8.636718-1.453125 17.347656-2.425781 26.050781-3.140625v.945313c0 4.714843 3.824219 8.535156 8.535156 8.535156h34.132813c4.714843 0 8.535156-3.820313 8.535156-8.535156v-.902344c8.710937.714844 17.421875 1.6875 26.058594 3.140625zm-43.125-10.769531h-17.066407v-25.601563h17.066407zm34.132812-51.199219c0 4.710938-3.820312 8.53125-8.535156 8.53125h-68.265625c-4.714844 0-8.535157-3.820312-8.535157-8.53125v-14.507812l42.199219-2.484376c.324219-.015624.648438-.015624.972657 0l42.164062 2.484376zm93.867188-104.296875v69.121094c.003906 2.351562-.964844 4.601562-2.671876 6.214843-1.710937 1.617188-4.011718 2.453126-6.359374 2.316407l-125.96875-7.414063c-.519532 0-1.03125-.050781-1.542969-.050781s-1 0-1.492188.050781l-126.003906 7.40625c-2.34375.136719-4.640625-.699218-6.351563-2.3125-1.71875-1.601562-2.691406-3.851562-2.675781-6.203125v-69.121093c0-4.328126 3.242188-7.96875 7.542969-8.472657l128-15.050781c.652344-.082031 1.316406-.082031 1.96875 0l128 15.050781c4.300781.5 7.546875 4.136719 7.554688 8.464844zm0 0"/><path d="m206.96875 358.675781c-4.578125-1.132812-9.203125 1.660157-10.335938 6.238281-1.128906 4.574219 1.664063 9.203126 6.238282 10.332032 18.167968 4.402344 37.128906 4.402344 55.296875 0 4.574219-1.128906 7.367187-5.757813 6.238281-10.332032-1.132812-4.578124-5.757812-7.371093-10.335938-6.238281-15.476562 3.753907-31.625 3.753907-47.101562 0zm0 0"/></g><g transform="matrix(0.11718153208494186 0 0 0.11718153208494186 51 74.99999988281843)" id="L1_8"><path d="m221.894531 119.480469c18.847657 0 34.132813-15.28125 34.132813-34.132813 0-18.851562-15.285156-34.132812-34.132813-34.132812-18.851562 0-34.136719 15.28125-34.136719 34.132812 0 18.851563 15.285157 34.132813 34.136719 34.132813zm0-51.199219c9.425781 0 17.066407 7.640625 17.066407 17.066406 0 9.425782-7.640626 17.066406-17.066407 17.066406s-17.070312-7.640624-17.070312-17.066406c0-9.425781 7.644531-17.066406 17.070312-17.066406zm0 0"/><path d="m298.691406 119.480469c14.140625 0 25.601563-11.460938 25.601563-25.601563 0-14.136718-11.460938-25.597656-25.601563-25.597656-14.136718 0-25.597656 11.460938-25.597656 25.597656 0 14.140625 11.460938 25.601563 25.597656 25.601563zm0-34.132813c4.714844 0 8.535156 3.820313 8.535156 8.53125 0 4.714844-3.820312 8.535156-8.535156 8.535156-4.710937 0-8.53125-3.820312-8.53125-8.535156 0-4.710937 3.820313-8.53125 8.53125-8.53125zm0 0"/><path d="m25.625 86.769531c4.296875-.027343 8.515625-1.152343 12.253906-3.265625l122.820313 115.59375c-10.589844 4.171875-18.761719 12.859375-22.277344 23.683594-3.515625 10.828125-2.007813 22.660156 4.109375 32.257812l-60.902344 60.902344c-.203125.273438-.386718.558594-.554687.855469-15.882813-3.722656-32.378907 3.0625-41.050781 16.882813-8.667969 13.824218-7.597657 31.628906 2.667968 44.308593v23.089844c0 4.714844 3.820313 8.535156 8.535156 8.535156 4.710938 0 8.53125-3.820312 8.53125-8.535156v-10.886719c8.246094 3.140625 17.355469 3.140625 25.601563 0v10.886719c0 4.714844 3.820313 8.535156 8.535156 8.535156 4.710938 0 8.53125-3.820312 8.53125-8.535156v-23.089844c6.363281-7.773437 9.363281-17.765625 8.335938-27.761719-1.023438-9.992187-5.996094-19.167968-13.804688-25.484374l57.640625-57.636719c4.996094 3.117187 10.644532 5.027343 16.503906 5.582031.46875 4.660156 1.328126 9.273438 2.5625 13.789062-13.308593 7.175782-21.117187 21.535157-19.914062 36.605469 1.207031 15.070313 11.199219 28.003907 25.476562 32.976563v70.621094c.007813 7.222656 3.117188 14.097656 8.53125 18.875v6.726562c0 14.136719 11.464844 25.597656 25.601563 25.597656h8.535156c0 18.851563 15.28125 34.132813 34.132813 34.132813 18.851562 0 34.132812-15.28125 34.132812-34.132813h8.53125c14.140625 0 25.601563-11.460937 25.601563-25.597656v-6.726562c5.417969-4.777344 8.523437-11.652344 8.53125-18.875v-70.621094c14.28125-4.96875 24.277343-17.902344 25.484375-32.972656 1.207031-15.070313-6.605469-29.429688-19.910156-36.609376 1.234374-4.515624 2.089843-9.128906 2.558593-13.789062 5.859375-.554688 11.511719-2.464844 16.503907-5.582031l57.644531 57.636719c-7.8125 6.316406-12.785157 15.488281-13.8125 25.484374-1.027344 9.992188 1.96875 19.984376 8.332031 27.761719v23.089844c0 4.714844 3.820312 8.535156 8.535156 8.535156 4.710938 0 8.53125-3.820312 8.53125-8.535156v-10.886719c8.246094 3.140625 17.355469 3.140625 25.601563 0v10.886719c0 4.714844 3.820312 8.535156 8.53125 8.535156 4.714843 0 8.535156-3.820312 8.535156-8.535156v-23.089844c5.484375-6.738281 8.496094-15.152343 8.535156-23.84375.082031-11.707031-5.21875-22.804687-14.378906-30.097656-9.160156-7.296875-21.164063-9.976563-32.554687-7.277344-.167969-.292969-.347657-.578125-.546876-.851562l-60.894531-60.878907c6.121094-9.597656 7.628907-21.429687 4.113281-32.257812-3.519531-10.824219-11.691406-19.511719-22.28125-23.683594l122.820313-115.59375c3.742187 2.113282 7.957031 3.238282 12.253906 3.265625 14.140625 0 25.601563-11.460937 25.601563-25.597656 0-14.140625-11.460938-25.601563-25.601563-25.601563-14.136719 0-25.601562 11.460938-25.601562 25.601563.007812 3.308594.660156 6.582031 1.921875 9.640625l-121.632813 114.484375c-.75-5.132813-3.800781-9.640625-8.289062-12.246094v-19.4375h8.535156c14.136719 0 25.601563-11.460937 25.601563-25.601562v-17.066407c0-61.265624-49.667969-110.9335932-110.933594-110.9335932-61.269532 0-110.933594 49.6679692-110.933594 110.9335932v17.066407c0 6.789062 2.695312 13.300781 7.496094 18.101562 4.800781 4.800781 11.3125 7.5 18.101562 7.5h8.535156v19.4375c-4.484374 2.605469-7.535156 7.113281-8.285156 12.246094l-121.636718-114.457031c4.257812-10.429688 1.191406-22.417969-7.546876-29.527344-8.738281-7.109375-21.097656-7.667969-30.445312-1.382812-9.347656 6.289062-13.484375 17.949218-10.191406 28.722656 3.292968 10.773437 13.238281 18.128906 24.503906 18.117187zm25.601562 267.375c0-11.78125 9.550782-21.332031 21.332032-21.332031s21.335937 9.550781 21.335937 21.332031c0 11.785157-9.554687 21.335938-21.335937 21.335938-5.65625 0-11.082032-2.25-15.085938-6.25-4-4-6.246094-9.425781-6.246094-15.085938zm409.597657 0c0 11.785157-9.550781 21.335938-21.332031 21.335938s-21.332032-9.550781-21.332032-21.335938c0-11.78125 9.550782-21.332031 21.332032-21.332031s21.332031 9.550781 21.332031 21.332031zm-145.066407-200.53125v17.066407h-119.464843v-17.066407zm8.535157 34.132813v76.800781c0 37.703125-30.5625 68.265625-68.265625 68.265625s-68.269532-30.5625-68.269532-68.265625v-76.800781zm-8.535157 170.351562v58.171875c-4.664062-4.261719-10.746093-6.632812-17.066406-6.65625h-8.53125v-8.535156c0-18.851563-15.28125-34.132813-34.132812-34.132813-18.851563 0-34.132813 15.28125-34.132813 34.132813v8.535156h-8.535156c-6.316406.023438-12.402344 2.394531-17.066406 6.65625v-58.171875c10.460937-1.179687 19.976562-6.621094 26.289062-15.042968 21.363281 9.125 45.523438 9.125 66.886719 0 6.316406 8.421874 15.828125 13.863281 26.289062 15.042968zm-145.066406-144.316406v41.8125c-9.941406-2.019531-17.085937-10.761719-17.085937-20.90625s7.144531-18.886719 17.085937-20.90625zm0 106.230469c.027344-6.921875 3.414063-13.402344 9.082032-17.382813 6.402343 12.78125 15.894531 23.757813 27.613281 31.941406-3.964844 4.28125-9.523438 6.734376-15.359375 6.777344-5.660156 0-11.085938-2.25-15.085938-6.25s-6.25-9.425781-6.25-15.085937zm42.667969 140.800781c-4.710937 0-8.535156-3.820312-8.535156-8.53125v-17.066406c0-4.714844 3.824219-8.535156 8.535156-8.535156h8.535156v34.132812zm59.734375 17.066406c0 9.425782-7.640625 17.066406-17.066406 17.066406-9.425782 0-17.066406-7.640624-17.066406-17.066406v-76.800781c0-9.425781 7.640624-17.066406 17.066406-17.066406 9.425781 0 17.066406 7.640625 17.066406 17.066406zm34.132812-25.597656c0 4.710938-3.820312 8.53125-8.535156 8.53125h-8.53125v-34.132812h8.53125c4.714844 0 8.535156 3.820312 8.535156 8.535156zm34.132813-132.269531c0 11.785156-9.550781 21.335937-21.332031 21.335937-5.835938-.042968-11.394532-2.496094-15.359375-6.777344 11.71875-8.179687 21.214843-19.160156 27.621093-31.941406 5.664063 3.980469 9.046876 10.460938 9.070313 17.382813zm17.066406-85.332031c0 10.136718-7.136719 18.871093-17.066406 20.898437v-41.8125c9.9375 2.027344 17.074219 10.773437 17.066406 20.914063zm128-182.042969c4.714844 0 8.535157 3.820312 8.535157 8.535156 0 4.710937-3.820313 8.53125-8.535157 8.53125-4.710937 0-8.53125-3.820313-8.53125-8.53125 0-4.714844 3.820313-8.535156 8.53125-8.535156zm-324.265625 75.375v-17.066407c0-51.839843 42.023438-93.867187 93.867188-93.867187 51.839844 0 93.867187 42.027344 93.867187 93.867187v17.066407c0 4.714843-3.824219 8.535156-8.535156 8.535156h-170.667969c-4.710937 0-8.53125-3.820313-8.53125-8.535156zm-136.535156-75.375c4.714844 0 8.535156 3.820312 8.535156 8.535156 0 4.710937-3.820312 8.53125-8.535156 8.53125-4.710938 0-8.53125-3.820313-8.53125-8.53125 0-4.714844 3.820312-8.535156 8.53125-8.535156zm0 0"/><path d="m221.894531 273.078125c4.710938 0 8.53125-3.820313 8.53125-8.53125v-42.667969c0-4.710937-3.820312-8.53125-8.53125-8.53125-4.714843 0-8.535156 3.820313-8.535156 8.53125v42.667969c0 4.710937 3.820313 8.53125 8.535156 8.53125zm0 0"/><path d="m256.027344 273.078125c4.710937 0 8.53125-3.820313 8.53125-8.53125v-42.667969c0-4.710937-3.820313-8.53125-8.53125-8.53125-4.714844 0-8.535156 3.820313-8.535156 8.53125v42.667969c0 4.710937 3.820312 8.53125 8.535156 8.53125zm0 0"/><path d="m290.160156 273.078125c4.710938 0 8.53125-3.820313 8.53125-8.53125v-42.667969c0-4.710937-3.820312-8.53125-8.53125-8.53125-4.714844 0-8.535156 3.820313-8.535156 8.53125v42.667969c0 4.710937 3.820312 8.53125 8.535156 8.53125zm0 0"/><path d="m238.960938 307.214844h34.132812c4.710938 0 8.53125-3.824219 8.53125-8.535156 0-4.710938-3.820312-8.535157-8.53125-8.535157h-34.132812c-4.714844 0-8.535157 3.824219-8.535157 8.535157 0 4.710937 3.820313 8.535156 8.535157 8.535156zm0 0"/></g><g transform="matrix(0.14150942862033844 0 0 0.14150942862033844 62 260.0000000707547)" id="L1_9"><path d="m167.289062 272.132812c-1.601562 0-3.214843-.550781-4.53125-1.671874l-45.296874-38.570313c-1.5625-1.332031-2.460938-3.277344-2.460938-5.332031 0-2.050782.902344-3.996094 2.460938-5.328125l45.296874-38.570313c2.941407-2.507812 7.359376-2.152344 9.867188.789063 2.503906 2.945312 2.152344 7.363281-.792969 9.867187l-39.035156 33.242188 39.035156 33.242187c2.945313 2.507813 3.296875 6.925781.792969 9.867188-1.386719 1.628906-3.355469 2.464843-5.335938 2.464843zm0 0"/><path d="m256.710938 272.132812c-1.980469 0-3.949219-.835937-5.332032-2.464843-2.507812-2.941407-2.152344-7.359375.789063-9.867188l39.035156-33.242187-39.035156-33.242188c-2.941407-2.503906-3.296875-6.921875-.789063-9.867187 2.503906-2.941407 6.925782-3.296875 9.863282-.789063l45.296874 38.570313c1.5625 1.332031 2.460938 3.277343 2.460938 5.328125 0 2.054687-.898438 4-2.460938 5.332031l-45.296874 38.570313c-1.316407 1.121093-2.929688 1.671874-4.53125 1.671874zm0 0"/><path d="m195.964844 301.0625c-.480469 0-.964844-.050781-1.453125-.152344-3.78125-.796875-6.203125-4.511718-5.40625-8.292968l28.230469-134.035157c.796874-3.78125 4.507812-6.203125 8.292968-5.40625 3.78125.796875 6.203125 4.507813 5.40625 8.292969l-28.230468 134.035156c-.695313 3.296875-3.601563 5.558594-6.839844 5.558594zm0 0"/><path d="m377 374.085938h-330c-25.914062 0-47-21.082032-47-47v-280.085938c0-25.914062 21.085938-47 47-47h330c25.914062 0 47 21.085938 47 47v280.085938c0 25.917968-21.085938 47-47 47zm-330-360.085938c-18.195312 0-33 14.804688-33 33v280.085938c0 18.195312 14.804688 33 33 33h330c18.195312 0 33-14.804688 33-33v-280.085938c0-18.195312-14.804688-33-33-33zm0 0"/><path d="m417 112.089844h-410c-3.867188 0-7-3.132813-7-7 0-3.863282 3.132812-7 7-7h410c3.867188 0 7 3.136718 7 7 0 3.867187-3.132812 7-7 7zm0 0"/><path d="m119.601562 78.59375c-12.210937 0-22.152343-9.941406-22.152343-22.152344 0-12.214844 9.941406-22.152344 22.152343-22.152344 12.214844 0 22.152344 9.9375 22.152344 22.152344 0 12.210938-9.9375 22.152344-22.152344 22.152344zm0-30.304688c-4.492187 0-8.152343 3.65625-8.152343 8.152344s3.660156 8.152344 8.152343 8.152344c4.496094 0 8.152344-3.65625 8.152344-8.152344s-3.65625-8.152344-8.152344-8.152344zm0 0"/><path d="m51.539062 78.378906c-12.214843 0-22.152343-9.9375-22.152343-22.152344 0-12.214843 9.9375-22.152343 22.152343-22.152343 12.214844 0 22.152344 9.9375 22.152344 22.152343 0 12.214844-9.9375 22.152344-22.152344 22.152344zm0-30.304687c-4.492187 0-8.152343 3.660156-8.152343 8.152343 0 4.496094 3.660156 8.152344 8.152343 8.152344 4.496094 0 8.152344-3.65625 8.152344-8.152344 0-4.492187-3.65625-8.152343-8.152344-8.152343zm0 0"/><path d="m187.664062 78.804688c-12.210937 0-22.148437-9.9375-22.148437-22.152344 0-12.210938 9.9375-22.148438 22.148437-22.148438 12.214844 0 22.152344 9.9375 22.152344 22.148438 0 12.214844-9.9375 22.152344-22.152344 22.152344zm0-30.304688c-4.492187 0-8.148437 3.65625-8.148437 8.152344s3.65625 8.152344 8.148437 8.152344c4.496094 0 8.152344-3.65625 8.152344-8.152344s-3.65625-8.152344-8.152344-8.152344zm0 0"/></g><g transform="matrix(0.1171875 0 0 0.1171875 258 50)" id="L1_10"><path d="m457 349.128906 29.789062 17.285156v85.5l-73.621093 42.714844-73.617188-42.714844v-85.5l73.617188-42.71875 30.835937 17.894532 7.542969-12.996094-38.378906-22.269531-81.128907 47.078125-73.621093-42.71875v-94.152344l-34.929688-20.269531-7.539062 12.996093 27.445312 15.925782v85.5l-73.621093 42.71875-73.617188-42.71875v-85.5l73.617188-42.71875 33.179687 19.253906 7.539063-12.996094-33.207032-19.269531v-94.148437l-88.640625-51.4375-88.644531 51.4375v43.089843h15.023438v-34.441406l73.621093-42.714844 73.617188 42.714844v85.503906l-73.617188 42.714844-73.621093-42.714844v-36.039062h-15.023438v44.6875l81.132812 47.078125v85.5l-81.132812 47.078125v102.804687l33.808594 19.613282 7.539062-12.992188-26.324218-15.273438v-85.5l73.621093-42.71875 73.617188 42.71875v85.5l-73.617188 42.714844-34.300781-19.902344-7.539062 12.996094 41.839843 24.277344 81.128907-47.078125 32.875 19.078125 7.539062-12.996094-32.902344-19.09375v-85.496094l73.621094-42.71875 73.621094 42.71875v85.496094l-73.621094 42.71875-27.722656-16.085937-7.539063 12.996093 35.261719 20.460938 81.132812-47.078125 81.128907 47.078125 88.644531-51.433594v-102.804687l-37.269531-21.628907zm0 0"/><path d="m244.898438 131.210938c17.1875 0 32.019531-10.246094 38.734374-24.949219l34.714844 8.300781c-.539062 3.304688-.832031 6.6875-.832031 10.140625 0 21.644531 11.042969 40.753906 27.789063 52.003906l-11.929688 16.101563c-4.488281-1.613282-9.320312-2.5-14.359375-2.5-23.472656 0-42.566406 19.097656-42.566406 42.570312s19.09375 42.566406 42.566406 42.566406 42.570313-19.09375 42.570313-42.566406c0-13.019531-5.882813-24.6875-15.117188-32.5l12.429688-16.785156c6.628906 2.398438 13.773437 3.710938 21.21875 3.710938 34.515624 0 62.601562-28.082032 62.601562-62.601563 0-12.15625-3.496094-23.503906-9.515625-33.117187l13.894531-12.6875c6.460938 3.957031 14.050782 6.238281 22.164063 6.238281 23.472656 0 42.566406-19.09375 42.566406-42.566407 0-23.472656-19.09375-42.570312-42.566406-42.570312-23.476563 0-42.570313 19.097656-42.570313 42.570312 0 9.914063 3.417969 19.042969 9.125 26.285157l-12.066406 11.015625c-11.285156-10.984375-26.679688-17.769532-43.632812-17.769532-25.796876 0-47.996094 15.683594-57.566407 38.019532l-35.207031-8.417969c.074219-1.011719.121094-2.03125.121094-3.058594 0-23.472656-19.09375-42.570312-42.566406-42.570312-23.472657 0-42.570313 19.097656-42.570313 42.570312 0 23.472657 19.097656 42.566407 42.570313 42.566407zm224.363281-116.1875c15.1875 0 27.542969 12.359374 27.542969 27.546874s-12.355469 27.542969-27.542969 27.542969c-15.191407 0-27.546875-12.355469-27.546875-27.542969s12.355468-27.546874 27.546875-27.546874zm-122.699219 217.855468c0 15.1875-12.355469 27.542969-27.546875 27.542969-15.1875 0-27.542969-12.355469-27.542969-27.542969s12.355469-27.546875 27.542969-27.546875c15.191406 0 27.546875 12.359375 27.546875 27.546875zm33.554688-155.753906c26.230468 0 47.574218 21.34375 47.574218 47.578125 0 26.230469-21.34375 47.574219-47.574218 47.574219-26.234376 0-47.578126-21.34375-47.578126-47.574219 0-26.234375 21.34375-47.578125 47.578126-47.578125zm-135.21875-16.027344c15.1875 0 27.542968 12.359375 27.542968 27.546875s-12.355468 27.542969-27.542968 27.542969c-15.191407 0-27.546876-12.355469-27.546876-27.542969s12.355469-27.546875 27.546876-27.546875zm0 0"/><path d="m305.761719 445.429688-7.542969-12.996094-47.3125 27.457031-21.320312-12.375-7.542969 12.996094 28.863281 16.746093zm0 0"/><path d="m196.042969 445.445312 7.539062-12.996093 12.996094 7.542969-7.542969 12.992187zm0 0"/><path d="m471.765625 438.933594v-63.867188l-28.835937-16.730468-7.539063 12.996093 21.347656 12.386719v55.214844zm0 0"/><path d="m409.398438 356.277344 7.539062-12.996094 12.996094 7.542969-7.542969 12.992187zm0 0"/><path d="m33.773438 445.441406 7.542968-12.992187 25.089844 14.558593-7.539062 12.996094zm0 0"/><path d="m71.859375 467.546875 7.542969-12.992187 12.996094 7.539062-7.542969 12.996094zm0 0"/><path d="m30.046875 141.453125h15.027344v15.023437h-15.027344zm0 0"/><path d="m30.046875 96.933594h15.027344v29.492187h-15.027344zm0 0"/><path d="m166 215.035156 7.542969-12.996094 12.996093 7.539063-7.542968 12.996094zm0 0"/><path d="m228.371094 297.703125v-63.867187l-28.835938-16.730469-7.539062 12.996093 21.347656 12.386719v55.214844zm0 0"/><path d="m397.644531 124.703125h15.023438c0-17.953125-14.601563-32.554687-32.550781-32.554687v15.023437c9.664062 0 17.527343 7.867187 17.527343 17.53125zm0 0"/></g><g transform="matrix(0.11790668219327927 0 0 0.11790668219327927 170.00000310886753 140.99999683356077)" id="L1_11"><path d="m506.68 398.262-42.607-42.607c-2.93-2.929-7.678-2.929-10.607 0s-2.929 7.678 0 10.606l29.807 29.806h-104.784v-211.356c.859 1.026 1.718 2.055 2.579 3.089 17.758 21.308 37.884 45.458 77.032 45.458 4.143 0 7.5-3.358 7.5-7.5s-3.357-7.5-7.5-7.5c-32.123 0-48.34-19.459-65.509-40.062-17.758-21.308-37.884-45.458-77.031-45.458-39.138 0-59.263 24.144-77.02 45.445-7.802 9.359-15.171 18.2-23.929 25.313-3.215 2.612-3.705 7.335-1.093 10.55 2.611 3.216 7.336 3.704 10.55 1.093 9.89-8.033 18.077-17.854 25.994-27.353 17.168-20.596 33.384-40.049 65.498-40.049 21.356 0 35.679 8.606 47.929 20.426v227.904h-31.049c-4.143 0-7.5 3.358-7.5 7.5s3.357 7.5 7.5 7.5h150.827l-29.802 29.801c-2.929 2.929-2.929 7.678 0 10.606 1.465 1.465 3.384 2.197 5.304 2.197 1.919 0 3.839-.732 5.304-2.197l42.607-42.607c2.929-2.927 2.929-7.676 0-10.605z"/><path d="m297.44 396.068h-131.031v-163.056c2.144.157 4.342.246 6.611.246 5.494 0 10.824-.477 15.843-1.418 4.071-.764 6.752-4.683 5.989-8.754-.764-4.071-4.68-6.75-8.754-5.989-4.109.771-8.508 1.162-13.077 1.162-32.112 0-48.326-19.455-65.492-40.052-13.409-16.089-27.245-32.676-48.929-40.662v-94.991l29.804 29.804c1.464 1.464 3.384 2.197 5.303 2.197s3.839-.732 5.303-2.197c2.929-2.929 2.929-7.678 0-10.606l-42.606-42.606c-.175-.175-.36-.341-.552-.499-.083-.068-.172-.128-.257-.192-.11-.083-.218-.168-.332-.244-.104-.069-.211-.129-.317-.193-.104-.062-.206-.127-.313-.185-.108-.058-.219-.107-.329-.159-.112-.053-.221-.108-.336-.156-.107-.044-.216-.08-.324-.119-.122-.044-.243-.091-.369-.129-.107-.032-.216-.056-.325-.083-.129-.033-.256-.068-.387-.095-.122-.024-.245-.038-.367-.056-.12-.018-.237-.04-.359-.052-.216-.021-.432-.03-.648-.033-.03 0-.059-.005-.089-.005s-.059.004-.089.005c-.216.003-.433.012-.648.033-.122.012-.24.034-.359.052-.122.018-.245.032-.367.056-.131.026-.259.062-.388.095-.108.027-.217.051-.324.083-.125.038-.246.085-.369.129-.108.039-.218.075-.324.119-.114.047-.224.103-.336.156-.11.052-.221.101-.329.159-.107.058-.209.123-.314.185-.106.063-.213.123-.316.192-.115.077-.223.162-.334.245-.085.064-.173.123-.256.191-.192.157-.376.323-.552.499l-42.606 42.607c-2.929 2.929-2.929 7.678 0 10.606 1.464 1.464 3.384 2.197 5.303 2.197s3.839-.732 5.303-2.197l29.805-29.804v353.514h-36.1c-4.142 0-7.5 3.358-7.5 7.5s3.358 7.5 7.5 7.5h36.1v45.891c0 4.142 3.358 7.5 7.5 7.5s7.5-3.358 7.5-7.5v-45.891h238.84c4.143 0 7.5-3.358 7.5-7.5s-3.357-7.5-7.5-7.5zm-238.84-242.222c15.151 7.302 26.023 20.305 37.405 33.963 14.15 16.979 29.817 35.75 55.404 42.677v165.583h-92.809z"/><path d="m265.865 304.813c-4.566 0-7.171-2.483-7.86-3.244-2.782-3.069-7.524-3.303-10.594-.521-3.069 2.781-3.303 7.524-.521 10.594 4.706 5.193 11.623 8.172 18.976 8.172 9.419 0 17.346-6.11 18.849-14.527 1.097-6.145-1.626-14.797-12.909-18.958-4.072-1.503-7.905-3.125-9.691-3.897.063-.232.366-.595 1.172-.838 3.61-1.089 8.364 1.475 9.754 2.464 3.331 2.424 8.001 1.709 10.448-1.612 2.459-3.333 1.75-8.029-1.583-10.488-1.146-.846-11.529-8.165-22.945-4.726-6.328 1.906-10.811 6.935-11.7 13.125-.843 5.873 1.706 11.523 6.651 14.748.332.216.679.405 1.041.566.226.101 5.607 2.497 11.662 4.73 2.628.969 3.37 2.047 3.334 2.25-.116.635-1.452 2.162-4.084 2.162z"/><path d="m166.409 437.594c-3.199 0-5.923 2.007-7.001 4.827-3.291-1.611-6.987-2.519-10.892-2.519-13.708 0-24.859 11.152-24.859 24.859 0 13.708 11.152 24.859 24.859 24.859 3.905 0 7.601-.908 10.892-2.519 1.078 2.82 3.802 4.827 7.001 4.827 4.142 0 7.5-3.358 7.5-7.5v-39.335c0-4.141-3.358-7.499-7.5-7.499zm-17.892 37.026c-5.437 0-9.859-4.423-9.859-9.859s4.423-9.859 9.859-9.859 9.859 4.423 9.859 9.859c-.001 5.437-4.423 9.859-9.859 9.859z"/><path d="m370.989 438.14c-4.334 0-8.36 1.037-11.894 2.865v-14.416c0-4.142-3.357-7.5-7.5-7.5s-7.5 3.358-7.5 7.5v57.839c0 4.142 3.357 7.5 7.5 7.5 2.672 0 5.011-1.401 6.34-3.505 3.801 2.226 8.238 3.505 13.054 3.505 14.83 0 26.895-12.064 26.895-26.894s-12.065-26.894-26.895-26.894zm0 38.788c-6.559 0-11.894-5.335-11.894-11.894s5.335-11.895 11.894-11.895 11.895 5.336 11.895 11.895-5.337 11.894-11.895 11.894z"/><path d="m188.344 77.143v30.467c0 4.142 3.358 7.5 7.5 7.5s7.5-3.358 7.5-7.5v-30.4h1.15c4.142 0 7.5-3.358 7.5-7.5s-3.358-7.5-7.5-7.5h-1.15v-5.051c.708-.092 1.682-.096 2.415.014 4.06.665 7.906-2.069 8.604-6.132.701-4.083-2.04-7.96-6.122-8.661-1.548-.266-9.556-1.353-15.158 3.368-3.056 2.576-4.739 6.38-4.739 10.712v5.817c-3.693.468-6.55 3.614-6.55 7.433s2.858 6.965 6.55 7.433z"/><path d="m270.647 104.002c1.353 1.02 2.938 1.512 4.51 1.512 2.273 0 4.521-1.03 5.994-2.985l9.38-12.44 9.976 13.146c1.476 1.944 3.715 2.966 5.98 2.966 1.579 0 3.173-.498 4.528-1.526 3.3-2.504 3.944-7.208 1.44-10.508l-12.54-16.524 10.376-13.761c2.494-3.308 1.834-8.01-1.473-10.504-3.309-2.496-8.011-1.834-10.504 1.473l-7.823 10.375-7.888-10.394c-2.504-3.299-7.21-3.945-10.509-1.44-3.3 2.504-3.944 7.208-1.44 10.508l10.452 13.772-11.933 15.826c-2.493 3.308-1.833 8.011 1.474 10.504z"/><path d="m240.158 109.698c.64 0 1.29-.083 1.937-.255 4.002-1.067 6.382-5.177 5.315-9.179-6.565-24.625-.396-41.312-.268-41.648 1.51-3.837-.361-8.178-4.194-9.711-3.846-1.538-8.21.333-9.749 4.179-.34.851-8.244 21.186-.283 51.044.894 3.356 3.927 5.57 7.242 5.57z"/><path d="m334.235 100.264c-1.066 4.002 1.313 8.112 5.314 9.179.647.172 1.298.255 1.938.255 3.314 0 6.348-2.215 7.242-5.57 7.961-29.858.057-50.193-.283-51.044-1.538-3.846-5.903-5.717-9.749-4.179s-5.717 5.903-4.179 9.749c.065.163 6.303 16.91-.283 41.61z"/></g></defs><g fi:class="KUsePattern" opacity="0.75"><pattern id="pattern_L1_6" width="350" height="350" patternUnits="userSpaceOnUse"><use xlink:href="#L1_6" x="-350" y="-350"/><use xlink:href="#L1_6" x="0" y="-350"/><use xlink:href="#L1_6" x="350" y="-350"/><use xlink:href="#L1_6" x="-350" y="0"/><use xlink:href="#L1_6" x="0" y="0"/><use xlink:href="#L1_6" x="350" y="0"/><use xlink:href="#L1_6" x="-350" y="350"/><use xlink:href="#L1_6" x="0" y="350"/><use xlink:href="#L1_6" x="350" y="350"/></pattern><rect x="0" y="0" width="100%" height="100%" fill="url(#pattern_L1_6)"/></g><g fi:class="KUsePattern" opacity="0.7"><pattern id="pattern_L1_8" width="350" height="350" patternUnits="userSpaceOnUse"><use xlink:href="#L1_8" x="-350" y="-350"/><use xlink:href="#L1_8" x="0" y="-350"/><use xlink:href="#L1_8" x="350" y="-350"/><use xlink:href="#L1_8" x="-350" y="0"/><use xlink:href="#L1_8" x="0" y="0"/><use xlink:href="#L1_8" x="350" y="0"/><use xlink:href="#L1_8" x="-350" y="350"/><use xlink:href="#L1_8" x="0" y="350"/><use xlink:href="#L1_8" x="350" y="350"/></pattern><rect x="0" y="0" width="100%" height="100%" fill="url(#pattern_L1_8)"/></g><g fi:class="KUsePattern"><pattern id="pattern_L1_9" width="350" height="350" patternUnits="userSpaceOnUse"><use xlink:href="#L1_9" x="-350" y="-350"/><use xlink:href="#L1_9" x="0" y="-350"/><use xlink:href="#L1_9" x="350" y="-350"/><use xlink:href="#L1_9" x="-350" y="0"/><use xlink:href="#L1_9" x="0" y="0"/><use xlink:href="#L1_9" x="350" y="0"/><use xlink:href="#L1_9" x="-350" y="350"/><use xlink:href="#L1_9" x="0" y="350"/><use xlink:href="#L1_9" x="350" y="350"/></pattern><rect x="0" y="0" width="100%" height="100%" fill="url(#pattern_L1_9)"/></g><g fi:class="KUsePattern"><pattern id="pattern_L1_10" width="350" height="350" patternUnits="userSpaceOnUse"><use xlink:href="#L1_10" x="-350" y="-350"/><use xlink:href="#L1_10" x="0" y="-350"/><use xlink:href="#L1_10" x="350" y="-350"/><use xlink:href="#L1_10" x="-350" y="0"/><use xlink:href="#L1_10" x="0" y="0"/><use xlink:href="#L1_10" x="350" y="0"/><use xlink:href="#L1_10" x="-350" y="350"/><use xlink:href="#L1_10" x="0" y="350"/><use xlink:href="#L1_10" x="350" y="350"/></pattern><rect x="0" y="0" width="100%" height="100%" fill="url(#pattern_L1_10)"/></g><g fi:class="KUsePattern"><pattern id="pattern_L1_11" width="350" height="350" patternUnits="userSpaceOnUse"><use xlink:href="#L1_11" x="-350" y="-350"/><use xlink:href="#L1_11" x="0" y="-350"/><use xlink:href="#L1_11" x="350" y="-350"/><use xlink:href="#L1_11" x="-350" y="0"/><use xlink:href="#L1_11" x="0" y="0"/><use xlink:href="#L1_11" x="350" y="0"/><use xlink:href="#L1_11" x="-350" y="350"/><use xlink:href="#L1_11" x="0" y="350"/><use xlink:href="#L1_11" x="350" y="350"/></pattern><rect x="0" y="0" width="100%" height="100%" fill="url(#pattern_L1_11)"/></g></svg>